inDegrees=no
num_controls=7
num_derivatives=13
num_iterations=217
num_multipliers=7
num_parameters=0
num_slacks=7
num_states=26
objective=0.506939
objective_accelerations=0.006829
objective_balance=0.003122
objective_effort=0.010774
objective_height=0.476402
objective_ligament=0.009811
solver_duration=2878.560496
status=Solve_Succeeded
success=true
DataType=double
version=3
OpenSimVersion=4.5
endheader
time	/jointset/ground_pelvis/pelvis_tilt/value	/jointset/ground_pelvis/pelvis_tx/value	/jointset/ground_pelvis/pelvis_ty/value	/jointset/hip_l/hip_flexion_l/value	/jointset/hip_l/hip_adduction_l/value	/jointset/hip_l/hip_rotation_l/value	/jointset/back/lumbar_extension/value	/jointset/patellofemoral_l/patellar_flexion_l/value	/jointset/knee_l/knee_flexion_l/value	/jointset/knee_l/knee_adduction_l/value	/jointset/knee_l/knee_rotation_l/value	/jointset/ankle_l/ankle_angle_l/value	/jointset/subtalar_l/subtalar_angle_l/value	/jointset/ground_pelvis/pelvis_tilt/speed	/jointset/ground_pelvis/pelvis_tx/speed	/jointset/ground_pelvis/pelvis_ty/speed	/jointset/hip_l/hip_flexion_l/speed	/jointset/hip_l/hip_adduction_l/speed	/jointset/hip_l/hip_rotation_l/speed	/jointset/back/lumbar_extension/speed	/jointset/patellofemoral_l/patellar_flexion_l/speed	/jointset/knee_l/knee_flexion_l/speed	/jointset/knee_l/knee_adduction_l/speed	/jointset/knee_l/knee_rotation_l/speed	/jointset/ankle_l/ankle_angle_l/speed	/jointset/subtalar_l/subtalar_angle_l/speed	/forceset/tau_hip_flexion_l	/forceset/tau_hip_adduction_l	/forceset/tau_hip_rotation_l	/forceset/tau_knee_flexion_l	/forceset/tau_ankle_angle_l	/forceset/tau_subtalar_angle_l	/forceset/tau_lumbar_extension	lambda_cid13_p0	lambda_cid13_p1	lambda_cid13_p2	lambda_cid13_p3	lambda_cid13_p4	lambda_cid13_p5	lambda_cid14_p0	/jointset/ground_pelvis/pelvis_tilt/accel	/jointset/ground_pelvis/pelvis_tx/accel	/jointset/ground_pelvis/pelvis_ty/accel	/jointset/hip_l/hip_flexion_l/accel	/jointset/hip_l/hip_adduction_l/accel	/jointset/hip_l/hip_rotation_l/accel	/jointset/back/lumbar_extension/accel	/jointset/patellofemoral_l/patellar_flexion_l/accel	/jointset/knee_l/knee_flexion_l/accel	/jointset/knee_l/knee_adduction_l/accel	/jointset/knee_l/knee_rotation_l/accel	/jointset/ankle_l/ankle_angle_l/accel	/jointset/subtalar_l/subtalar_angle_l/accel	gamma_cid13_p0	gamma_cid13_p1	gamma_cid13_p2	gamma_cid13_p3	gamma_cid13_p4	gamma_cid13_p5	gamma_cid14_p0
1	0.08009758159954807	0.03471589674569503	0.9261659145015088	0.2264143077517162	-0.295003308664636	-0.2904851366772708	-0.7451898579263141	0.2860449254228964	0.2860449254228828	-0.1617815168775449	-0.1745058893582092	0.004600044284731352	0.002830192155067665	0.1189212809785036	0.04014991774126251	0.02709139060636704	-0.2736168148029214	0.02641539956740498	-0.06129190601573946	0.001595682255593779	-0.1506794687718447	-0.150679468771846	0.009209802515463286	3.003293527320301e-05	0.004012122640474678	0.02962379490774988	-0.1415695101672382	0.04650284342691441	0.0008745301594809912	-0.07972828520869486	0.03706681043619194	0.02649218016455139	0.2514698269515922	-34.08996703140761	-9.329317237492127	5.365181859499354	1.490640548500643	-715.9797924734454	-71.73226966713345	-23.52001187577213	-0.1907169932727988	0.1927053092249978	0.03895734830845135	-0.3523329497317336	0.0657536576488868	-0.2064855286419147	1.403467372131539	-0.5551639360142562	-0.555163936014258	-0.04383551898729932	-0.001240637940180644	-0.03076429116802601	0.06064533487576818	-3.400317006371876e-09	7.564743670740282e-10	4.654983228115712e-09	2.759422282104289e-09	-1.398968933812866e-08	1.196580740777993e-09	-1.149408865086226e-09
1.01	0.08127707980664083	0.03512699404877171	0.9264387177493264	0.2236610245349691	-0.2947358603078215	-0.2911083709614079	-0.7451036791718401	0.2845107753773497	0.2845107753773443	-0.1616914744047613	-0.1745057592932545	0.004638739593466045	0.003129508321593484	0.1169737495677493	0.04206759163182002	0.02746667572324276	-0.2770287145438778	0.02707169376866451	-0.06335051143328831	0.0156342838249877	-0.1561454994169882	-0.1561454994170272	0.008792691973856863	-2.882117876028557e-06	0.003724562204164258	0.03023588231940996	-0.1406299030118362	0.04638943295712761	0.0008285089276124555	-0.07947714628708326	0.03682897410666742	0.02634594033089324	0.2508433904311452	-34.15744720837073	-9.263321710082758	5.365319441513662	1.52556772991016	-715.7829227998816	-71.72024064996459	-23.50657390834803	-0.1974629220693054	0.1910063155957602	0.03642374305802835	-0.3339517306409669	0.06518077444682738	-0.2048829893383876	1.403188827211902	-0.5415662567902789	-0.5415662567903248	-0.04154861668886217	-0.004145332741336751	-0.02810876121171322	0.0609564320191717	-3.475053755579432e-09	6.664823771522048e-10	4.793045488593939e-09	2.863759368150395e-09	-1.432279784553201e-08	1.114232784969863e-09	-1.169287460610429e-09
1.02	0.08243696435820771	0.03555720966807893	0.9267151957782489	0.2208739556719398	-0.294461926314378	-0.2917520582879258	-0.7448772879460986	0.2829221162997464	0.2829221162997493	-0.1616057829963826	-0.174505924057579	0.004674487929567446	0.003434838559777511	0.1149985498733333	0.04397358098737349	0.02782634682735443	-0.2803739440593693	0.02771252689321769	-0.06538251449191784	0.02963817650912188	-0.1615812751831673	-0.1615812751831692	0.0083395896344708	-2.893292058695403e-05	0.003422728113814015	0.03082660923939178	-0.1396902958564341	0.04627602248734081	0.0007824876957439544	-0.07922600736557295	0.03659113777714292	0.02619970049717199	0.2502169539105579	-34.22893580424262	-9.196883674288349	5.365682695765188	1.564352303476184	-715.6476174673719	-71.71388251352354	-23.49242399811972	-0.1962506500051627	0.1903684022241922	0.03583454575564005	-0.3389989046387659	0.06266144230761769	-0.2011650568580508	1.396525595079589	-0.549112960221377	-0.5491129602213771	-0.05103387855499775	0.0001322121474805929	-0.0336190219833191	0.0563732365401157	-3.497844271200052e-09	5.177224783123291e-10	4.857727987415658e-09	2.915286838632415e-09	-1.453349593816826e-08	1.028641180308345e-09	-1.178359241631928e-09
1.03	0.08357694037936228	0.03600642147456296	0.9269951879441549	0.2180538139846321	-0.2941816607669745	-0.292415922692824	-0.7445110380142533	0.2812792804346963	0.2812792804346994	-0.1615247930808643	-0.1745063137053486	0.004707151666973923	0.003745971451348721	0.1129897276162233	0.04586625752302385	0.02816896403593119	-0.2836375799020781	0.02833830702367329	-0.06738551886136175	0.04360586308477997	-0.1669771594581505	-0.1669771594581543	0.00785419244016047	-4.836233088887172e-05	0.003108415031468664	0.03139698352844578	-0.1386492555544865	0.0461331210447537	0.0007310257715008289	-0.07899340568743243	0.03637453073781172	0.02603648867454361	0.2494708741921064	-34.28890448469282	-9.12512700903374	5.365238284681568	1.60341449595339	-715.4233282789372	-71.70328274154467	-23.47753674484074	-0.2042370744115202	0.1883394548382964	0.03300401086076486	-0.317524224909504	0.06219517641401881	-0.1991418709012007	1.395998172535112	-0.5335151683115275	-0.5335151683115044	-0.04792262055955364	-0.002884406671736334	-0.03057841304707379	0.05692112550618478	-3.520104723212642e-09	3.683629069324728e-10	4.921661713159248e-09	2.966275435486231e-09	-1.474294494493953e-08	9.430164771891397e-10	-1.187320749036052e-09
